<?xml version="1.0" encoding="iso-8859-1"?>
<!-- Generator: Adobe Illustrator 18.0.0, SVG Export Plug-In . SVG Version: 6.00 Build 0)  -->
<!DOCTYPE svg PUBLIC "-//W3C//DTD SVG 1.1//EN" "http://www.w3.org/Graphics/SVG/1.1/DTD/svg11.dtd">
<svg version="1.1" id="Capa_1" xmlns="http://www.w3.org/2000/svg" x="0px" y="0px"
	 viewBox="0 0 219.57 219.57" style="enable-background:new 0 0 219.57 219.57;" xml:space="preserve">
<path d="M109.779,0C49.247,0,0,49.25,0,109.787C0.002,170.321,49.25,219.57,109.781,219.57
	c29.326-0.002,56.896-11.422,77.634-32.157c20.737-20.736,32.157-48.305,32.155-77.627C219.57,49.251,170.32,0.001,109.779,0z
	 M15,109.786c0-24.618,9.436-47.072,24.877-63.941c4.875,5.302,9.075,11.063,12.565,17.186l-2.243,1.046
	c-3.754,1.751-5.378,6.213-3.627,9.967c1.272,2.729,3.978,4.332,6.802,4.332c1.062,0,2.14-0.227,3.165-0.705l2.261-1.054
	c3.04,8.162,4.941,16.777,5.626,25.666h-2.439c-4.143,0-7.5,3.358-7.5,7.5c0,4.142,3.357,7.5,7.5,7.5h2.439
	c-0.684,8.89-2.586,17.505-5.626,25.668l-2.261-1.054c-3.753-1.749-8.215-0.126-9.967,3.628c-1.751,3.754-0.127,8.216,3.627,9.967
	l2.242,1.046c-3.49,6.122-7.691,11.883-12.567,17.186C24.436,156.855,15.001,134.402,15,109.786z M50.831,183.949
	c5.895-6.434,10.968-13.529,15.147-21.099l2.77,1.292c1.025,0.478,2.104,0.705,3.165,0.705c2.824,0,5.529-1.604,6.802-4.332
	c1.751-3.754,0.127-8.216-3.627-9.967l-2.77-1.291c3.937-10.189,6.366-20.969,7.129-31.973h2.996c4.143,0,7.5-3.358,7.5-7.5
	c0-4.142-3.357-7.5-7.5-7.5h-2.996c-0.764-11.003-3.192-21.782-7.128-31.971l2.769-1.291c3.754-1.751,5.378-6.213,3.627-9.967
	c-1.751-3.754-6.213-5.375-9.967-3.627l-2.77,1.292c-4.179-7.57-9.252-14.665-15.146-21.099C67.026,22.72,87.519,15,109.783,15
	c22.265,0,42.758,7.721,58.952,20.62c-5.894,6.433-10.967,13.528-15.145,21.098l-2.77-1.292c-3.753-1.748-8.216-0.126-9.967,3.627
	c-1.751,3.754-0.127,8.216,3.627,9.967l2.769,1.291c-3.936,10.188-6.364,20.967-7.128,31.971h-2.996c-4.143,0-7.5,3.358-7.5,7.5
	c0,4.142,3.357,7.5,7.5,7.5h2.996c0.763,11.004,3.192,21.783,7.129,31.973l-2.77,1.291c-3.754,1.751-5.378,6.213-3.627,9.967
	c1.272,2.729,3.977,4.332,6.802,4.332c1.061,0,2.14-0.227,3.165-0.705l2.77-1.292c4.188,7.584,9.272,14.691,15.182,21.134
	c-16.713,13.337-37.293,20.585-58.99,20.586C87.518,204.57,67.024,196.849,50.831,183.949z M179.724,173.755
	c-4.889-5.311-9.099-11.083-12.597-17.218l2.242-1.046c3.754-1.751,5.378-6.213,3.627-9.967c-1.75-3.754-6.212-5.377-9.967-3.628
	l-2.261,1.054c-3.04-8.163-4.941-16.778-5.626-25.668h2.44c4.143,0,7.5-3.358,7.5-7.5c0-4.142-3.357-7.5-7.5-7.5h-2.44
	c0.685-8.889,2.586-17.504,5.626-25.666l2.261,1.054c1.025,0.478,2.104,0.705,3.165,0.705c2.824,0,5.529-1.604,6.802-4.332
	c1.751-3.754,0.127-8.216-3.627-9.967l-2.243-1.046c3.49-6.122,7.69-11.883,12.565-17.185
	c15.442,16.869,24.879,39.323,24.879,63.941C204.572,133.691,195.777,156.242,179.724,173.755z"/>
	<g>
</g>
	<g>
</g>
	<g>
</g>
	<g>
</g>
	<g>
</g>
	<g>
</g>
	<g>
</g>
	<g>
</g>
	<g>
</g>
	<g>
</g>
	<g>
</g>
	<g>
</g>
	<g>
</g>
	<g>
</g>
	<g>
</g>
</svg>
